<?xml version="1.0" standalone="no"?>
<!DOCTYPE svg PUBLIC "-//W3C//DTD SVG 20010904//EN"
 "http://www.w3.org/TR/2001/REC-SVG-20010904/DTD/svg10.dtd">
<svg version="1.0" xmlns="http://www.w3.org/2000/svg"
 width="1061.000000pt" height="593.000000pt" viewBox="0 0 1061.000000 593.000000"
 preserveAspectRatio="xMidYMid meet">

<g transform="translate(0.000000,593.000000) scale(0.100000,-0.100000)"
fill="#000000" stroke="none">
<path d="M3190 5535 c-7 -8 -10 -21 -7 -29 3 -8 2 -30 -4 -48 -5 -18 -10 -51
-11 -73 0 -43 -10 -55 -46 -55 -35 0 -122 -40 -122 -56 0 -8 -11 -16 -24 -20
-13 -3 -28 -16 -34 -28 -7 -16 -27 -27 -73 -40 -84 -23 -226 -91 -317 -150
-254 -167 -450 -462 -507 -760 -21 -110 -30 -242 -16 -250 6 -4 11 -18 11 -32
0 -23 -3 -24 -56 -24 -56 0 -56 0 -50 -27 4 -14 4 -73 0 -130 l-7 -103 -38 0
c-32 0 -39 -3 -39 -20 0 -20 -7 -20 -490 -20 l-490 0 0 -247 0 -248 2893 2
c1590 0 3258 2 3705 2 l812 1 0 100 c0 94 2 103 25 125 29 30 55 32 86 6 22
-18 24 -28 27 -125 3 -83 7 -106 18 -106 11 0 14 20 14 99 0 84 3 102 21 125
23 29 54 33 87 10 20 -14 22 -23 22 -125 0 -102 1 -109 20 -109 19 0 20 7 20
105 0 92 3 108 20 125 26 26 64 26 90 0 17 -17 20 -33 20 -125 l0 -105 459 0
c253 0 466 -3 475 -6 14 -6 16 20 16 245 l0 251 -445 0 c-438 0 -445 0 -445
20 0 17 -7 20 -44 20 l-43 0 -7 105 c-4 57 -4 116 0 130 6 25 5 25 -49 25
l-56 0 6 103 c16 298 -154 661 -408 874 -141 118 -239 173 -402 228 -71 24
-103 40 -108 53 -4 11 -19 22 -33 26 -14 3 -26 13 -26 20 0 8 -15 21 -32 29
-30 14 -49 20 -114 32 -18 4 -22 14 -28 72 -4 38 -7 80 -6 94 0 30 -21 52 -42
44 -16 -6 -30 -79 -32 -163 -1 -45 -1 -45 -71 -57 -51 -9 -92 -30 -105 -55 -6
-11 -17 -20 -26 -20 -8 0 -18 -9 -22 -21 -6 -15 -31 -28 -93 -48 -296 -96
-549 -307 -692 -580 -88 -166 -137 -360 -137 -537 l0 -94 -51 0 c-50 0 -51 0
-45 -27 4 -14 4 -73 0 -130 l-7 -103 -38 0 c-32 0 -39 -3 -39 -20 0 -20 -7
-20 -730 -20 -723 0 -730 0 -730 20 0 17 -7 20 -44 20 l-43 0 -7 105 c-4 57
-4 116 0 130 6 25 5 25 -51 25 l-57 0 7 58 c23 198 -82 525 -234 728 -149 200
-398 375 -613 431 -54 14 -68 22 -73 40 -3 13 -12 23 -21 23 -8 0 -25 11 -37
23 -30 32 -52 43 -117 56 -55 11 -55 12 -56 49 -2 60 -13 152 -19 162 -9 15
-31 12 -45 -5z m43 -135 c8 -41 -4 -66 -27 -57 -19 8 -22 62 -5 104 10 26 12
26 19 8 4 -11 10 -36 13 -55z m4215 -5 c4 -50 3 -55 -16 -55 -33 0 -37 33 -15
114 9 32 26 0 31 -59z m-4166 -85 c66 -10 118 -27 118 -40 0 -3 -33 -2 -72 2
-72 9 -265 2 -297 -10 -14 -5 -14 -3 -3 11 12 14 34 20 137 41 34 6 48 6 117
-4z m4287 -15 c62 -21 47 -32 -31 -23 -69 8 -255 2 -285 -9 -27 -11 -12 15 17
27 71 30 221 32 299 5z m-4221 -49 c75 -7 112 -15 112 -26 0 -4 -19 -3 -42 3
-55 13 -338 13 -400 0 -27 -6 -48 -7 -48 -3 0 5 15 12 33 16 39 8 223 21 257
18 14 -2 53 -5 88 -8z m4217 -1 c79 -6 115 -14 115 -25 0 -4 -19 -4 -42 1
-121 23 -375 19 -442 -7 -9 -3 -16 -2 -16 4 0 6 15 14 33 18 39 8 223 21 257
18 14 -2 57 -6 95 -9z m-4298 -60 c2 -6 -10 -26 -25 -44 l-28 -34 -28 36 c-15
20 -25 41 -21 47 8 14 97 9 102 -5z m4217 7 c6 -10 -41 -82 -54 -82 -10 0 -50
62 -50 79 0 13 96 16 104 3z m-4409 -18 c-23 -18 -134 -84 -141 -84 -11 0 -2
37 14 57 16 20 77 40 127 42 l20 0 -20 -15z m371 -5 c30 -9 65 -61 52 -75 -6
-5 -109 53 -143 81 -19 15 -18 16 20 10 22 -3 54 -10 71 -16z m3849 11 c-9
-15 -145 -93 -151 -87 -7 6 22 63 36 72 9 6 81 22 108 24 7 1 10 -3 7 -9z
m375 -14 c26 -12 59 -61 48 -72 -8 -7 -142 69 -153 86 -8 13 69 3 105 -14z
m-4500 -43 l25 -46 -90 -84 c-49 -45 -94 -83 -99 -83 -12 0 -60 73 -70 106 -6
18 5 28 71 66 43 25 89 55 103 66 14 12 27 21 30 22 3 0 16 -21 30 -47z m182
3 c35 -24 82 -53 106 -65 36 -19 42 -25 36 -44 -10 -34 -58 -107 -70 -107 -5
0 -50 38 -99 83 l-90 84 25 46 c14 26 26 47 27 47 1 0 30 -20 65 -44z m4033 1
c22 -34 24 -41 12 -58 -20 -28 -166 -159 -177 -159 -12 0 -57 71 -65 103 -6
22 1 29 72 71 43 25 89 55 103 65 14 11 26 19 27 18 1 -2 13 -20 28 -40z m278
-61 c28 -16 47 -34 47 -44 0 -22 -56 -112 -69 -112 -6 0 -51 39 -101 88 l-90
87 27 41 27 42 56 -37 c30 -21 76 -50 103 -65z m-4756 46 c-11 -41 -16 -45
-119 -102 -60 -33 -111 -60 -115 -60 -3 0 -3 14 1 32 7 36 46 91 80 113 20 14
159 66 163 62 1 -1 -4 -21 -10 -45z m715 8 c39 -14 69 -34 92 -62 32 -37 55
-93 43 -104 -2 -3 -53 22 -112 54 -104 56 -109 61 -122 103 -7 24 -13 45 -13
46 0 3 54 -15 112 -37z m3503 -6 c-11 -45 -13 -46 -121 -104 -60 -33 -112 -59
-116 -60 -20 -1 35 113 67 140 10 9 162 67 181 70 0 0 -4 -21 -11 -46z m797
-45 c33 -35 66 -104 55 -115 -3 -3 -54 21 -115 53 -107 56 -111 59 -121 100
-6 23 -11 44 -11 47 0 2 35 -7 78 -21 57 -19 87 -36 114 -64z m-5246 -31 c-8
-13 -20 -43 -26 -68 -10 -40 -18 -49 -62 -74 -29 -16 -89 -58 -135 -93 -92
-70 -101 -66 -59 23 26 55 88 113 201 187 80 52 104 60 81 25z m657 -245 c-39
-43 -82 -88 -96 -101 l-25 -23 -49 53 c-27 29 -69 75 -93 101 l-44 48 95 95
94 94 94 -94 94 -95 -70 -78z m500 221 c114 -73 177 -132 203 -188 42 -89 33
-93 -59 -23 -46 35 -106 77 -135 93 -44 25 -52 34 -62 74 -6 25 -18 55 -26 68
-22 34 -1 27 79 -24z m3067 38 c0 -4 -4 -12 -9 -17 -5 -6 -16 -32 -24 -60 -13
-45 -20 -53 -80 -90 -36 -22 -96 -64 -132 -93 -37 -29 -69 -51 -71 -49 -3 2 5
30 16 61 26 68 73 116 194 197 88 58 106 67 106 51z m622 -87 l96 -95 -90
-100 c-49 -55 -93 -100 -97 -100 -6 0 -95 96 -165 178 l-19 22 89 94 c49 51
89 94 90 95 0 0 44 -42 96 -94z m497 68 c55 -32 99 -63 167 -121 40 -33 57
-56 74 -103 13 -33 20 -62 17 -66 -3 -3 -27 13 -54 36 -26 23 -87 67 -135 98
-65 41 -88 61 -88 77 0 11 -9 40 -20 64 -10 23 -16 42 -13 42 3 0 27 -12 52
-27z m-5101 -40 c6 -16 22 -47 36 -69 l26 -42 -126 -102 c-70 -56 -130 -98
-134 -93 -14 14 -50 144 -50 178 0 31 5 35 113 93 61 34 115 62 119 62 3 0 11
-12 16 -27z m729 -34 c108 -59 113 -63 113 -94 0 -34 -36 -164 -50 -178 -4 -5
-64 37 -134 93 l-126 102 26 42 c14 22 30 53 36 69 5 15 13 27 16 27 3 0 57
-28 119 -61z m3512 -9 l34 -69 -29 -24 c-82 -68 -220 -177 -225 -177 -7 0 -46
123 -55 172 -5 31 -2 39 18 51 46 30 203 115 213 115 6 1 25 -30 44 -68z m707
8 l115 -63 -5 -45 c-7 -48 -44 -170 -53 -170 -7 0 -240 188 -248 199 -3 6 6
29 20 51 14 23 30 52 35 65 5 14 12 25 15 25 3 0 58 -28 121 -62z m-5210 -154
c7 -32 19 -78 28 -102 l15 -42 -136 -135 c-75 -74 -138 -135 -139 -135 -9 0
-55 171 -61 220 l-5 56 63 56 c74 64 200 149 213 145 5 -2 15 -30 22 -63z
m1227 15 c34 -23 91 -67 126 -97 l63 -56 -5 -56 c-6 -50 -53 -220 -61 -220 -2
0 -64 60 -139 134 l-135 134 24 77 c13 41 24 86 24 99 0 47 12 46 103 -15z
m2982 10 c4 -23 17 -71 29 -106 l22 -65 -131 -128 c-71 -71 -134 -130 -140
-132 -15 -5 -56 128 -62 201 l-6 67 59 54 c56 50 197 150 214 150 5 0 11 -19
15 -41z m1239 -14 c44 -30 105 -78 134 -108 l53 -54 -11 -64 c-12 -71 -47
-186 -59 -193 -4 -3 -67 55 -140 129 l-133 133 21 63 c11 35 23 83 27 107 4
23 11 42 17 42 5 0 46 -25 91 -55z m-5037 -32 c33 -38 74 -85 92 -105 l33 -38
-133 -141 -133 -140 -18 23 c-51 64 -158 234 -156 247 3 13 234 218 249 220 3
1 33 -29 66 -66z m484 -34 c66 -56 123 -108 126 -115 8 -21 -160 -279 -177
-272 -13 5 -255 271 -255 279 0 9 173 209 181 209 2 0 58 -46 125 -101z m3720
49 c24 -29 65 -76 91 -104 l48 -51 -132 -141 c-108 -115 -134 -139 -146 -129
-21 17 -173 249 -170 258 4 10 250 218 259 219 3 0 26 -24 50 -52z m503 -56
c69 -57 126 -106 126 -109 0 -19 -145 -238 -173 -261 -11 -9 -38 14 -137 121
-67 72 -124 137 -127 144 -5 12 167 213 179 210 4 -1 63 -48 132 -105z m-5419
21 c-9 -36 -31 -75 -68 -120 -66 -83 -91 -120 -129 -187 -45 -79 -26 -10 28
99 39 80 170 273 179 263 2 -1 -3 -27 -10 -55z m1821 -90 c52 -78 124 -226
124 -255 0 -7 -13 10 -29 38 -35 65 -61 102 -129 188 -30 37 -58 82 -62 100
-4 17 -10 42 -14 56 -6 23 -4 22 24 -10 17 -19 56 -72 86 -117z m2395 89 c-11
-40 -30 -75 -62 -113 -26 -30 -69 -88 -95 -130 -77 -121 -76 -118 -68 -89 10
40 86 190 126 250 33 50 106 140 112 140 2 0 -4 -26 -13 -58z m1735 31 c51
-58 137 -197 176 -284 22 -50 38 -92 36 -94 -2 -2 -24 30 -48 72 -25 41 -73
109 -107 151 -35 41 -63 82 -63 91 -1 9 -7 33 -14 54 -16 44 -13 46 20 10z
m-5930 -351 c23 -77 24 -85 9 -105 -74 -103 -126 -185 -146 -232 l-24 -55 -79
0 -79 0 7 38 c23 144 152 413 250 520 l21 24 8 -54 c5 -29 20 -91 33 -136z
m1809 73 c81 -122 164 -316 181 -427 l7 -38 -79 0 -79 0 -32 69 c-18 38 -60
106 -94 151 l-61 83 25 86 c14 47 29 110 33 140 l6 53 23 -23 c13 -13 44 -55
70 -94z m2378 56 c4 -32 17 -93 31 -136 l25 -77 -54 -72 c-56 -74 -125 -197
-125 -222 0 -11 -17 -14 -80 -14 l-80 0 0 29 c0 49 58 210 114 318 51 97 142
233 157 233 3 0 9 -26 12 -59z m1832 -50 c97 -145 185 -354 185 -438 l0 -33
-75 0 -74 0 -21 47 c-25 58 -69 129 -126 203 l-42 56 24 69 c12 39 26 95 29
125 8 69 12 83 25 75 5 -3 39 -50 75 -104z m-5660 68 c4 -12 43 -75 87 -141
l80 -120 -39 -41 c-65 -68 -144 -168 -161 -204 -14 -30 -19 -33 -63 -33 -43 0
-47 2 -54 28 -3 15 -35 78 -71 140 -35 63 -64 117 -64 122 0 12 257 270 269
270 5 0 13 -9 16 -21z m610 -115 c66 -74 121 -140 122 -147 2 -6 -35 -57 -82
-112 -47 -55 -90 -115 -97 -132 -12 -32 -13 -33 -73 -33 -60 0 -61 1 -73 33
-6 17 -52 79 -101 137 -87 103 -88 105 -71 127 47 60 236 262 245 262 6 0 64
-61 130 -135z m491 19 c64 -65 123 -127 131 -139 12 -20 8 -31 -51 -135 -36
-63 -68 -126 -71 -141 -7 -26 -11 -28 -56 -28 -46 0 -50 2 -68 38 -20 37 -56
83 -144 185 l-49 56 80 119 c44 66 83 129 87 141 3 12 11 21 16 21 5 0 61 -53
125 -117z m3137 55 c20 -35 60 -97 90 -139 l55 -76 -85 -99 c-47 -54 -96 -118
-110 -141 -23 -40 -28 -43 -68 -43 -36 0 -44 4 -49 23 -3 12 -35 74 -71 137
-36 63 -65 121 -65 129 0 13 250 271 262 271 4 0 22 -28 41 -62z m591 -78 c82
-90 124 -144 120 -153 -4 -6 -42 -53 -83 -102 -42 -50 -85 -107 -96 -128 -19
-36 -21 -37 -73 -37 -49 0 -54 2 -70 31 -9 18 -56 80 -105 138 -48 58 -86 108
-85 112 6 13 251 279 258 279 4 0 65 -63 134 -140z m505 5 c72 -75 130 -139
128 -143 -2 -4 -32 -55 -65 -113 -34 -58 -67 -120 -73 -137 -10 -30 -14 -32
-58 -32 -44 0 -49 3 -63 33 -17 36 -120 168 -162 206 -14 14 -26 30 -26 37 0
6 29 54 64 105 35 52 73 113 85 137 12 23 25 42 30 42 5 0 68 -61 140 -135z
m-5586 -277 c30 -57 58 -113 62 -125 l6 -23 -145 0 -146 0 14 35 c18 43 135
215 146 215 5 0 33 -46 63 -102z m551 -31 c42 -54 76 -102 76 -108 0 -5 -77
-9 -185 -9 -133 0 -185 3 -185 12 0 14 32 58 119 161 75 90 57 96 175 -56z
m1046 38 c26 -38 57 -89 69 -112 l21 -43 -145 0 -146 0 6 23 c4 12 32 68 62
125 63 119 58 119 133 7z m2623 -18 c32 -62 57 -118 57 -125 0 -9 -38 -12
-140 -12 -77 0 -140 3 -140 8 1 27 142 242 158 242 5 0 34 -51 65 -113z m529
3 c41 -52 81 -105 87 -117 l12 -23 -191 0 c-104 0 -190 3 -190 7 0 23 190 248
200 236 4 -4 41 -51 82 -103z m1049 38 c53 -76 103 -167 96 -174 -2 -3 -68 -3
-147 -2 l-142 3 63 122 c35 68 67 123 71 123 4 0 30 -33 59 -72z m-4719 0 c67
-78 128 -158 128 -169 0 -5 -83 -9 -185 -9 -106 0 -185 4 -185 9 0 13 170 231
180 231 5 0 33 -28 62 -62z m4239 -27 c41 -49 82 -103 92 -120 l18 -31 -185 0
c-102 0 -186 4 -186 9 0 21 163 231 179 231 5 0 42 -40 82 -89z m-5121 -316
l0 -55 -360 0 -360 0 0 55 0 55 360 0 360 0 0 -55z m1058 3 l-3 -53 -515 0
-515 0 -3 53 -3 52 521 0 521 0 -3 -52z m750 0 l-3 -53 -362 -3 -363 -2 0 55
0 55 366 0 365 0 -3 -52z m2402 -3 l0 -55 -360 0 -360 0 0 55 0 55 360 0 360
0 0 -55z m1058 3 l-3 -53 -515 0 -515 0 -3 53 -3 52 521 0 521 0 -3 -52z m750
0 l-3 -53 -362 -3 -363 -2 0 55 0 55 366 0 365 0 -3 -52z m-5540 -141 c-14
-13 -29 -34 -33 -46 l-7 -23 -26 25 c-15 14 -40 29 -55 32 -15 4 -25 10 -22
14 7 7 157 29 164 24 2 -1 -7 -13 -21 -26z m145 18 c71 -8 92 -19 55 -30 -13
-4 -35 -18 -49 -32 l-26 -24 -21 36 c-12 19 -28 38 -37 41 -8 4 -15 11 -15 16
0 6 6 8 13 5 8 -3 44 -8 80 -12z m4125 -8 c-15 -12 -32 -35 -38 -51 l-11 -29
-27 25 c-15 14 -38 29 -51 33 -12 4 -19 11 -15 15 7 7 97 23 159 28 6 1 -2 -9
-17 -21z m140 8 c67 -7 86 -19 50 -30 -13 -4 -35 -19 -50 -33 l-27 -25 -11 29
c-6 16 -23 39 -38 52 -22 19 -24 22 -7 18 11 -2 48 -8 83 -11z m-4334 -36 c42
-50 36 -59 -40 -59 -63 0 -65 1 -59 23 7 23 49 67 65 67 4 0 20 -14 34 -31z
m4252 13 c20 -15 44 -52 44 -66 0 -3 -31 -6 -70 -6 l-70 0 11 28 c9 24 45 62
59 62 3 0 15 -8 26 -18z m-4513 -57 c-9 -28 -17 -51 -19 -53 -1 -2 -16 4 -33
12 -16 9 -42 16 -58 16 -24 0 -25 2 -13 14 13 13 132 67 137 62 1 -1 -5 -24
-14 -51z m493 29 c88 -39 93 -46 42 -59 -24 -7 -51 -15 -60 -20 -15 -6 -18 -2
-18 22 0 16 -7 38 -15 49 -14 18 -19 34 -11 34 2 0 30 -12 62 -26z m3780 1
c-9 -13 -16 -35 -16 -48 0 -33 -8 -37 -39 -25 -14 6 -42 14 -61 18 l-35 7 75
36 c89 43 97 45 76 12z m502 -11 l77 -37 -35 -7 c-19 -4 -47 -12 -61 -18 -31
-12 -39 -8 -39 25 0 13 -7 35 -16 48 -9 14 -13 25 -9 25 3 0 41 -16 83 -36z
m-4670 -6 c12 -12 22 -25 22 -29 0 -6 -91 -33 -115 -34 -12 0 -9 28 7 68 9 24
15 27 37 22 14 -4 36 -16 49 -27z m332 -15 c8 -23 11 -45 8 -48 -9 -9 -128 29
-125 40 6 17 70 56 86 53 9 -2 23 -22 31 -45z m3928 14 c12 -11 22 -23 22 -27
0 -6 -97 -40 -113 -40 -13 0 -7 56 9 78 18 26 45 23 82 -11z m326 11 c16 -22
22 -78 9 -78 -16 0 -113 34 -113 40 0 9 42 46 60 53 25 9 28 8 44 -15z m-6598
-63 c42 -8 79 -17 82 -20 3 -3 -54 -5 -126 -5 -108 0 -132 3 -132 14 0 28 66
32 176 11z m234 5 c0 -5 -5 -10 -11 -10 -5 0 -7 5 -4 10 3 6 8 10 11 10 2 0 4
-4 4 -10z m400 -12 l55 -13 -92 -3 c-51 -1 -136 -1 -190 0 l-98 3 75 17 c82
19 164 17 250 -4z m1490 -11 c0 -26 -6 -36 -24 -45 -22 -10 -24 -8 -30 20 -10
52 -8 58 24 58 27 0 30 -3 30 -33z m72 8 c-8 -62 -11 -65 -37 -53 -20 9 -25
19 -25 45 0 33 2 34 33 31 25 -2 31 -7 29 -23z m1609 8 l74 -18 -82 -3 c-45
-1 -122 -1 -170 0 l-88 3 65 16 c86 22 114 22 201 2z m199 7 c0 -5 -5 -10 -11
-10 -5 0 -7 5 -4 10 3 6 8 10 11 10 2 0 4 -4 4 -10z m360 -14 c43 -13 38 -14
-119 -15 -90 -1 -162 2 -158 5 3 3 29 12 59 19 61 16 153 12 218 -9z m530 0
c43 -13 38 -14 -119 -15 -90 -1 -162 1 -160 4 3 2 32 11 65 20 66 16 145 13
214 -9z m1490 -11 c0 -24 -6 -37 -19 -45 -23 -12 -27 -7 -36 43 -7 36 -7 37
24 37 29 0 31 -3 31 -35z m75 -2 c-9 -50 -13 -55 -36 -43 -13 8 -19 21 -19 45
0 32 2 35 31 35 31 0 31 -1 24 -37z m1661 22 c42 -8 79 -17 82 -20 3 -3 -80
-5 -184 -4 -104 0 -184 3 -178 5 23 10 141 32 171 33 17 1 66 -6 109 -14z
m234 5 c0 -5 -5 -10 -11 -10 -5 0 -7 5 -4 10 3 6 8 10 11 10 2 0 4 -4 4 -10z
m260 -10 c0 -19 -6 -20 -92 -19 -102 1 -103 2 -8 23 91 20 100 19 100 -4z
m-6861 -44 l0 -54 -57 -4 c-31 -2 -59 -3 -61 -1 -4 3 108 113 115 113 1 0 3
-24 3 -54z m82 44 c8 0 23 -6 33 -13 17 -12 14 -16 -32 -46 -28 -18 -56 -30
-62 -26 -11 7 -14 78 -3 89 4 4 17 5 28 2 11 -3 27 -6 36 -6z m219 -14 c0 -13
3 -31 6 -40 4 -11 1 -16 -11 -16 -15 0 -15 -2 3 -17 20 -18 48 -136 36 -154
-15 -24 -42 -4 -81 58 -39 63 -41 69 -26 85 9 10 22 18 28 18 9 0 7 11 -6 37
-21 40 -14 53 29 53 17 0 22 -6 22 -24z m212 -5 c-1 -14 -10 -33 -19 -43 -15
-17 -15 -18 3 -18 11 0 25 -9 31 -20 11 -17 7 -28 -28 -85 -40 -63 -52 -72
-75 -57 -18 11 9 142 32 159 10 7 12 13 6 13 -13 0 -16 38 -6 65 4 10 16 15
33 13 21 -2 25 -8 23 -27z m231 0 c7 -33 -1 -71 -15 -71 -9 0 -117 70 -108 70
3 0 23 7 45 15 59 21 72 19 78 -14z m106 -55 c29 -31 24 -40 -13 -27 -14 6
-39 8 -55 5 l-28 -6 1 55 0 55 36 -28 c19 -15 46 -40 59 -54z m3493 74 c21 -6
40 -15 43 -20 6 -9 -76 -70 -94 -70 -15 0 -25 45 -17 75 7 28 15 29 68 15z
m218 1 c0 -5 3 -23 6 -40 5 -26 3 -31 -12 -32 -17 0 -16 -1 2 -9 18 -7 24 -23
34 -80 13 -75 6 -98 -23 -87 -22 8 -90 125 -83 143 3 9 15 18 26 21 20 5 28
23 11 23 -11 0 -24 48 -16 60 8 12 55 13 55 1z m213 -26 c-1 -16 -7 -31 -13
-33 -15 -5 -12 -22 5 -22 8 0 19 -9 25 -20 9 -16 4 -32 -27 -85 -36 -61 -63
-80 -78 -55 -4 6 -1 42 5 79 9 54 16 71 33 79 18 9 19 11 5 11 -20 1 -21 5
-12 50 6 27 11 32 33 29 22 -3 26 -7 24 -33z m233 9 c4 -14 3 -39 -2 -55 l-9
-29 -53 35 c-29 20 -50 40 -47 45 6 10 59 28 87 29 11 1 20 -9 24 -25z m-6591
6 c18 -8 18 -9 -5 -9 -14 0 -32 4 -40 9 -12 8 -12 10 5 9 11 0 29 -4 40 -9z
m105 0 c-8 -5 -28 -9 -45 -9 -29 1 -29 1 -5 9 14 4 34 8 45 9 16 1 17 -1 5 -9z
m495 0 l20 -9 -20 0 c-11 0 -29 4 -40 9 l-20 9 20 0 c11 0 29 -4 40 -9z m3180
0 l20 -9 -20 0 c-11 0 -27 4 -35 9 -13 9 -13 10 0 9 8 0 24 -4 35 -9z m95 0
c-8 -5 -26 -9 -40 -9 -23 0 -23 1 -5 9 11 5 29 9 40 9 17 1 17 -1 5 -9z m435
0 l20 -9 -20 0 c-11 0 -27 4 -35 9 -13 9 -13 10 0 9 8 0 24 -4 35 -9z m95 0
c-8 -5 -26 -9 -40 -9 l-25 1 25 8 c14 4 32 8 40 9 13 1 13 0 0 -9z m417 4 c-3
-3 -12 -4 -19 -1 -8 3 -5 6 6 6 11 1 17 -2 13 -5z m1023 -28 c0 -19 3 -41 6
-49 4 -12 -7 -16 -58 -19 -35 -2 -65 -3 -67 -1 -5 3 101 103 111 103 4 0 8
-15 8 -34z m831 -18 c50 -48 56 -73 11 -49 -11 6 -36 7 -57 4 -34 -5 -38 -4
-32 11 4 10 7 33 7 52 0 19 4 34 8 34 5 0 33 -23 63 -52z m949 42 c-8 -5 -24
-10 -35 -10 -17 0 -17 2 -5 10 8 5 24 10 35 10 17 0 17 -2 5 -10z m495 0 c18
-8 18 -9 -5 -9 -14 0 -32 4 -40 9 -12 8 -12 10 5 9 11 0 29 -4 40 -9z m105 0
c-8 -5 -28 -9 -45 -9 -29 1 -29 1 -5 9 14 4 34 8 45 9 16 1 17 -1 5 -9z
m-6409 -27 c8 -22 6 -30 -9 -46 -19 -18 -20 -18 -41 16 -25 42 -26 44 -3 50
35 9 43 6 53 -20z m343 21 c22 -8 20 -24 -7 -57 -22 -28 -23 -28 -40 -9 -15
16 -16 24 -6 46 12 26 24 31 53 20z m3921 -24 c6 -28 -7 -60 -24 -60 -6 0 -51
65 -51 74 0 3 8 7 18 9 40 11 50 7 57 -23z m362 16 c6 -5 -40 -76 -48 -76 -18
0 -30 32 -24 61 6 28 10 31 38 25 17 -3 32 -8 34 -10z m-4693 -84 c-18 -3 -35
4 -52 21 l-25 25 29 15 c29 15 29 15 51 -21 l23 -37 -26 -3z m4265 44 c26 -42
26 -43 -4 -48 -17 -4 -31 2 -47 19 l-23 24 25 19 c14 11 26 20 27 20 1 0 11
-15 22 -34z m491 -4 c0 -3 -9 -15 -20 -27 -14 -15 -29 -21 -45 -17 -30 5 -30
6 -4 48 20 33 21 33 45 18 13 -9 24 -19 24 -22z m-6127 21 c-134 -2 -352 -2
-485 0 -134 1 -25 2 242 2 267 0 376 -1 243 -2z m1851 -6 c18 -13 18 -15 -3
-39 -16 -18 -29 -24 -47 -20 -28 5 -30 14 -8 47 18 28 32 31 58 12z m2234 6
c-203 -2 -533 -2 -735 0 -203 1 -37 2 367 2 404 0 570 -1 368 -2z m3770 0
c-119 -2 -317 -2 -440 0 -123 1 -25 2 217 2 242 0 342 -1 223 -2z m-6235 -27
c16 -13 16 -18 2 -85 -8 -40 -15 -74 -15 -77 0 -2 -11 -4 -24 -4 -21 0 -24 6
-36 75 -10 60 -10 78 0 90 15 18 49 19 73 1z m4261 1 c16 -12 17 -19 4 -87
-12 -70 -15 -75 -38 -75 -23 0 -26 5 -38 75 -13 68 -12 75 4 87 10 7 25 13 34
13 9 0 24 -6 34 -13z m-6411 -42 c-118 -65 -193 -59 -193 14 l0 31 138 0 137
0 -82 -45z m177 40 c0 -12 -164 -86 -183 -83 -17 3 -2 14 58 45 70 37 125 53
125 38z m145 -40 c65 -36 75 -44 53 -45 -29 0 -178 69 -178 82 0 19 51 4 125
-37z m280 0 c-49 -27 -93 -45 -113 -45 -29 0 -192 72 -192 85 0 3 87 5 193 5
l192 -1 -80 -44z m165 38 c0 -15 -149 -85 -172 -81 -18 3 -6 13 57 45 76 40
115 52 115 36z m1085 -62 c-8 -26 -19 -26 -57 0 l-29 21 22 24 23 25 24 -25
c17 -17 22 -30 17 -45z m602 26 c-2 -6 -16 -20 -31 -31 -27 -20 -28 -20 -41
-2 -12 16 -11 22 7 46 20 27 22 28 45 13 13 -9 22 -21 20 -26z m1403 38 c0
-12 -140 -85 -164 -85 -24 0 -166 73 -166 85 0 3 74 5 165 5 91 0 165 -2 165
-5z m90 -2 c-1 -13 -131 -83 -153 -83 -28 0 -13 14 60 56 55 32 93 43 93 27z
m131 -35 c57 -33 69 -44 52 -46 -21 -3 -147 59 -159 79 -13 22 39 6 107 -33z
m318 38 c-21 -21 -150 -86 -170 -86 -23 0 -169 74 -169 86 0 2 77 4 172 4 94
0 169 -2 167 -4z m91 0 c0 -12 -144 -87 -163 -84 -18 3 -8 12 48 45 59 35 115
54 115 39z m123 -38 c57 -34 67 -44 50 -46 -19 -3 -163 71 -163 83 0 16 52 -1
113 -37z m317 38 c0 -12 -146 -86 -171 -86 -22 0 -140 60 -168 86 -2 2 73 4
167 4 95 0 172 -2 172 -4z m2907 -38 c58 -32 72 -44 56 -46 -24 -4 -163 63
-163 78 0 19 28 10 107 -32z m286 -3 c-50 -27 -95 -45 -115 -45 -20 0 -68 18
-118 45 l-85 44 200 1 200 0 -82 -45z m177 40 c0 -12 -164 -86 -183 -83 -17 3
-2 14 58 45 70 37 125 53 125 38z m145 -40 c65 -36 75 -44 53 -45 -29 0 -178
69 -178 82 0 19 51 4 125 -37z m155 0 c0 -25 -5 -45 -10 -45 -13 0 -170 79
-170 85 0 3 41 5 90 5 l90 0 0 -45z m-3620 23 c0 -19 -96 -70 -123 -66 -18 3
-9 11 43 40 71 41 80 44 80 26z m1128 -10 c18 -20 19 -25 7 -42 -14 -19 -22
-18 -65 10 -23 15 -23 14 3 -9 32 -31 33 -33 6 -47 -16 -9 -28 -9 -50 0 -16 7
-29 15 -29 18 0 11 84 92 95 92 6 0 21 -10 33 -22z m630 -21 c23 -23 42 -45
42 -49 0 -3 -13 -11 -29 -18 -22 -9 -34 -9 -50 0 -27 14 -26 16 7 46 22 21 23
23 5 15 -12 -6 -25 -16 -28 -21 -11 -17 -33 -11 -40 11 -7 21 18 59 39 59 7 0
31 -19 54 -43z m-3133 -27 c10 -16 -33 -12 -60 6 -14 9 -25 23 -25 30 0 11 8
10 39 -6 22 -11 42 -24 46 -30z m-3425 15 c0 -23 -4 -25 -45 -25 -25 0 -45 2
-45 5 0 5 71 44 83 45 4 0 7 -11 7 -25z m70 5 c22 -11 40 -23 40 -25 0 -3 -20
-5 -45 -5 -41 0 -45 2 -45 25 0 30 1 30 50 5z m517 -27 c-3 -2 -22 -3 -43 -1
l-39 3 40 22 c40 21 40 21 43 1 2 -11 1 -22 -1 -25z m966 41 c4 -4 -12 -29
-35 -57 l-42 -49 -18 22 c-24 29 -24 77 0 83 27 7 88 8 95 1z m861 -3 c19 -8
23 -15 19 -33 -7 -32 -25 -68 -34 -68 -10 0 -79 89 -79 101 0 12 63 11 94 0z
m1356 -16 c0 -23 -4 -25 -42 -25 -44 0 -44 3 -1 31 38 24 43 23 43 -6z m66 4
c19 -11 34 -23 34 -25 0 -2 -18 -4 -40 -4 -36 0 -40 3 -40 25 0 30 3 31 46 4z
m474 -4 c0 -22 -4 -25 -40 -25 -22 0 -40 2 -40 5 0 6 62 45 73 45 4 0 7 -11 7
-25z m58 5 c17 -11 32 -22 32 -25 0 -3 -18 -5 -40 -5 -36 0 -40 3 -40 25 0 30
5 31 48 5z m1452 14 c0 -11 -73 -104 -82 -104 -10 0 -38 55 -38 75 0 9 10 20
23 25 26 10 97 13 97 4z m849 0 c22 -5 31 -12 31 -26 0 -22 -27 -78 -38 -78
-9 0 -82 93 -82 104 0 8 48 8 89 0z m1451 -19 c0 -23 -4 -25 -45 -25 -25 0
-45 2 -45 5 0 5 71 44 83 45 4 0 7 -11 7 -25z m70 5 c22 -11 40 -23 40 -25 0
-3 -20 -5 -45 -5 -41 0 -45 2 -45 25 0 30 1 30 50 5z m-6555 -40 c11 -19 -35
-32 -66 -20 -33 14 -36 26 -13 51 16 18 18 18 45 -2 16 -11 31 -24 34 -29z
m161 -7 c48 -75 49 -78 22 -90 -19 -8 -31 -3 -85 40 -35 27 -63 53 -63 58 0
18 41 49 65 49 19 0 33 -13 61 -57z m384 37 c11 -11 20 -24 20 -30 0 -5 -28
-31 -61 -59 -54 -43 -65 -48 -85 -39 -13 6 -22 14 -20 17 1 3 20 34 40 69 41
69 69 79 106 42z m138 -42 c-13 -10 -33 -17 -46 -15 -20 4 -21 3 -9 -12 8 -9
18 -26 21 -38 6 -19 -1 -24 -75 -48 -81 -27 -81 -27 -101 -7 -20 19 -20 20 40
66 33 25 68 46 76 46 9 0 15 4 14 10 -2 5 11 21 27 34 l30 24 23 -21 23 -21
-23 -18z m3744 2 c42 -63 45 -75 19 -89 -15 -8 -30 -2 -77 35 -33 25 -63 49
-67 53 -4 4 2 20 14 35 33 42 66 33 111 -34z m388 33 c11 -14 17 -30 13 -34
-4 -4 -34 -28 -67 -53 -47 -37 -62 -43 -77 -35 -11 5 -19 13 -19 16 0 9 51 96
68 116 22 25 57 21 82 -10z m1150 7 l35 -19 -42 -1 c-36 0 -43 3 -43 20 0 24
5 24 50 0z m-2800 -5 c0 -9 -9 -15 -22 -15 -22 1 -23 1 -4 15 25 19 26 19 26
0z m-3370 -18 c0 -12 7 -32 15 -44 17 -24 14 -28 -32 -37 -17 -4 -37 -14 -44
-22 -38 -46 -24 24 19 89 28 42 42 47 42 14z m1064 -30 c13 -23 27 -52 31 -65
l7 -23 -39 21 c-21 11 -46 20 -55 20 -22 0 -22 4 -2 57 9 23 20 40 25 37 5 -3
20 -24 33 -47z m3202 21 c6 -18 14 -41 19 -50 5 -14 2 -18 -12 -18 -10 0 -36
-9 -57 -19 l-38 -20 7 27 c7 28 56 112 65 112 3 0 10 -15 16 -32z m1056 -11
c14 -23 30 -54 33 -69 l7 -27 -38 20 c-21 10 -47 19 -57 19 -14 0 -17 4 -12
18 5 9 13 32 19 50 6 17 13 32 16 32 3 0 17 -19 32 -43z m-5172 -47 c0 -27
-16 -33 -55 -20 -40 13 -40 13 -19 45 15 23 17 24 45 9 17 -8 29 -23 29 -34z
m800 0 c0 -5 -16 -14 -36 -20 -30 -10 -38 -10 -45 1 -15 24 -10 38 19 53 25
14 28 14 45 -6 9 -11 17 -24 17 -28z m3443 31 c21 -11 26 -19 21 -35 -9 -30
-10 -30 -54 -17 l-41 12 18 30 c10 16 20 28 23 26 3 -1 17 -9 33 -16z m812
-11 l15 -29 -40 -12 c-44 -13 -45 -13 -54 17 -5 16 1 24 26 37 18 8 34 16 35
16 1 1 9 -12 18 -29z m-4914 -22 c32 -24 59 -48 59 -54 0 -6 -10 -16 -22 -23
-19 -9 -35 -7 -93 12 -60 20 -70 27 -73 49 -2 18 4 31 20 42 33 23 44 21 109
-26z m4269 -5 c60 -46 60 -47 42 -66 -19 -19 -21 -18 -98 5 -88 26 -101 44
-63 84 32 34 51 30 119 -23z m539 23 c38 -40 25 -58 -63 -84 -77 -23 -79 -24
-98 -5 -18 19 -18 20 39 65 66 53 90 58 122 24z m-5760 -22 c18 -23 21 -41 21
-120 l0 -94 -71 0 -71 0 4 101 c3 92 5 103 27 120 33 27 66 24 90 -7z m159 10
c20 -14 22 -23 22 -120 l0 -104 -65 0 -65 0 0 94 c0 79 3 97 21 120 23 29 54
33 87 10z m172 -4 c17 -17 20 -33 20 -120 l0 -100 -65 0 -65 0 0 97 c0 86 3
99 22 120 26 28 61 30 88 3z m1770 0 c17 -17 20 -33 20 -120 l0 -100 -65 0
-65 0 0 100 c0 87 3 103 20 120 11 11 31 20 45 20 14 0 34 -9 45 -20z m170 0
c17 -17 20 -33 20 -120 l0 -100 -65 0 -65 0 0 100 c0 87 3 103 20 120 11 11
31 20 45 20 14 0 34 -9 45 -20z m169 -6 c18 -23 21 -41 21 -120 l0 -94 -65 0
-65 0 0 104 c0 97 2 106 22 120 33 23 64 19 87 -10z m1821 6 c17 -17 20 -33
20 -120 l0 -100 -65 0 -65 0 0 100 c0 87 3 103 20 120 11 11 31 20 45 20 14 0
34 -9 45 -20z m169 -6 c18 -23 21 -41 21 -120 l0 -94 -65 0 -65 0 0 104 c0 97
2 106 22 120 33 23 64 19 87 -10z m170 0 c18 -23 21 -41 21 -120 l0 -94 -71 0
-71 0 4 101 c3 92 5 103 27 120 33 27 66 24 90 -7z m-3913 -36 l-6 -23 11 23
c13 25 31 27 72 9 l29 -12 -25 -23 c-22 -21 -29 -22 -60 -14 -35 10 -36 9 -47
-24 -14 -41 -20 -42 -54 -7 -34 33 -30 51 14 74 49 27 73 25 66 -3z m496 -3
c-1 -11 -5 -31 -9 -45 l-6 -25 -7 25 c-15 47 -12 72 8 68 10 -2 16 -11 14 -23z
m456 0 c16 -34 17 -32 -20 -39 -24 -5 -37 -1 -55 16 l-24 23 33 12 c48 17 54
16 66 -12z m89 0 c13 -9 23 -22 23 -31 0 -15 -43 -64 -57 -64 -4 0 -18 28 -30
61 l-23 61 32 -6 c18 -3 42 -13 55 -21z m3219 2 c-10 -42 -36 -97 -45 -97 -10
0 -61 57 -61 68 0 15 64 50 94 51 14 1 17 -4 12 -22z m73 12 c36 -13 38 -20
12 -43 -14 -13 -28 -16 -50 -11 -33 7 -37 15 -21 46 12 22 16 23 59 8z m427
-20 c-3 -17 -6 -39 -6 -47 0 -28 -17 1 -24 41 -6 33 -5 37 15 37 19 0 21 -4
15 -31z m454 12 c16 -31 12 -39 -21 -46 -22 -5 -36 -2 -50 11 -26 23 -24 30 9
42 40 15 50 14 62 -7z m95 -8 c13 -10 25 -21 25 -25 0 -10 -51 -68 -61 -68 -9
0 -35 55 -46 98 -6 24 -4 25 26 19 17 -4 43 -15 56 -24z m-4852 -20 c8 -49 2
-52 -22 -12 -26 42 -26 49 -2 49 13 0 20 -10 24 -37z m77 1 c-12 -19 -20 -37
-17 -40 2 -3 14 11 25 31 22 37 29 40 51 26 10 -6 4 -15 -23 -36 -20 -15 -34
-30 -32 -33 3 -2 23 10 44 27 38 30 40 30 56 12 16 -18 15 -20 -43 -39 -34
-11 -61 -17 -61 -12 0 5 -8 11 -19 15 -13 4 -17 13 -14 33 8 46 12 52 34 52
l21 0 -22 -36z m4186 1 c9 -49 0 -53 -25 -10 -26 44 -26 45 -1 45 14 0 21 -9
26 -35z m94 31 c0 -11 -43 -76 -47 -72 -3 3 -2 21 1 41 5 26 12 35 26 35 11 0
20 -2 20 -4z m-4391 -46 c12 -22 19 -40 14 -40 -17 1 -75 59 -69 69 13 21 32
11 55 -29z m4260 6 c12 -18 21 -37 21 -41 0 -6 -43 22 -80 52 -5 4 21 23 32
23 3 0 16 -15 27 -34z m171 24 c8 -5 12 -11 10 -13 -33 -26 -80 -58 -80 -54 0
11 42 77 48 77 4 0 14 -4 22 -10z m-4582 -55 c3 -3 -3 -14 -13 -25 -15 -17
-31 -20 -102 -20 l-83 0 0 29 c0 20 9 36 25 50 l26 20 71 -25 c39 -13 73 -26
76 -29z m596 28 c16 -15 26 -35 24 -47 -3 -19 -10 -21 -92 -21 -80 0 -90 2
-103 21 -14 21 -12 23 59 47 91 32 81 32 112 0z m3596 2 c68 -22 75 -28 60
-54 -10 -20 -18 -22 -98 -19 -81 3 -87 4 -90 25 -4 26 42 77 61 70 7 -2 37
-12 67 -22z m665 0 c14 -13 25 -36 25 -50 0 -25 0 -25 -90 -25 -80 0 -90 2
-100 21 -15 26 -11 30 63 56 79 27 74 27 102 -2z m-4737 -26 c24 -17 41 -33
39 -35 -2 -2 -31 6 -66 17 -51 17 -60 24 -50 35 17 20 30 18 77 -17z m4267 -4
l40 -34 -57 18 c-66 20 -78 28 -58 41 23 15 32 12 75 -25z m245 25 c21 -13 5
-25 -60 -43 l-55 -16 40 34 c43 37 52 40 75 25z m-4980 -64 c0 -3 -16 -6 -35
-6 -38 0 -40 5 -25 45 l10 26 25 -29 c14 -17 25 -33 25 -36z m1174 42 c11 -41
7 -48 -25 -48 -17 0 -29 3 -27 8 35 71 42 76 52 40z m3086 -40 c0 -9 -54 -11
-63 -2 -3 3 -1 19 5 36 l11 30 23 -28 c13 -16 23 -32 24 -36z m1183 0 c-5 -9
-63 -11 -63 -3 0 3 10 19 22 36 l23 31 11 -29 c7 -15 10 -31 7 -35z m-5325 42
c6 0 12 -11 12 -25 0 -22 -4 -25 -40 -25 -42 0 -43 1 -33 38 4 18 11 22 27 18
11 -3 27 -6 34 -6z m936 -6 c13 -35 7 -44 -34 -44 -36 0 -40 3 -40 24 0 23 9
29 56 35 7 0 15 -6 18 -15z m3334 6 c8 0 12 -9 10 -22 -2 -18 -11 -24 -37 -26
-41 -4 -52 6 -40 37 7 18 14 22 32 17 12 -3 28 -6 35 -6z m931 -12 c12 -30 1
-40 -40 -36 -26 2 -35 8 -37 25 -2 16 3 23 20 26 44 8 49 7 57 -15z m-4891
-15 l37 -17 -54 -4 c-58 -3 -66 0 -58 23 8 20 29 19 75 -2z m331 4 c17 -21 3
-27 -57 -27 -59 0 -61 7 -9 27 43 15 53 15 66 0z m3922 1 c55 -16 48 -28 -16
-28 -30 0 -55 2 -55 4 0 14 14 36 22 36 6 0 28 -5 49 -12z m339 8 c0 -2 3 -11
6 -20 5 -13 -3 -16 -50 -16 -63 0 -73 12 -23 28 34 11 67 15 67 8z"/>
<path d="M870 3090 l0 -50 4420 0 4420 0 0 50 0 50 -4420 0 -4420 0 0 -50z"/>
<path d="M2075 2861 c-69 -18 -125 -63 -161 -131 -16 -30 -19 -68 -24 -245 -6
-198 -7 -212 -30 -255 l-25 -45 -3 -427 -3 -428 291 0 291 0 -3 428 -3 427
-27 56 c-27 55 -28 60 -28 236 0 210 -11 263 -66 318 -54 55 -143 83 -209 66z"/>
<path d="M2759 2857 c-62 -18 -104 -50 -136 -105 -28 -46 -28 -50 -33 -257 -5
-201 -6 -212 -30 -255 l-25 -45 -3 -432 -3 -433 286 0 285 0 0 429 0 428 -30
59 -30 59 0 193 c0 208 -4 230 -55 290 -53 64 -144 91 -226 69z"/>
<path d="M3485 2861 c-45 -11 -76 -29 -118 -70 -57 -54 -67 -102 -67 -314 0
-176 -1 -181 -27 -236 l-28 -56 -3 -427 -3 -428 291 0 291 0 -3 428 -3 427
-27 55 c-26 53 -27 62 -30 255 -3 181 -5 204 -25 240 -50 94 -157 148 -248
126z"/>
<path d="M7085 2861 c-72 -18 -132 -68 -159 -133 -13 -29 -16 -79 -16 -230 l0
-193 -30 -59 -30 -59 0 -428 0 -429 285 0 286 0 -3 428 -3 427 -27 59 c-27 57
-28 63 -28 245 -1 200 -7 234 -54 295 -44 58 -150 95 -221 77z"/>
<path d="M7765 2861 c-70 -18 -125 -63 -161 -131 -16 -30 -19 -65 -22 -235 -2
-174 -5 -205 -22 -241 -35 -73 -40 -138 -40 -535 l0 -389 290 0 291 0 -3 428
-3 427 -27 56 c-27 55 -28 60 -28 236 0 209 -11 260 -65 316 -55 57 -142 85
-210 68z"/>
<path d="M8445 2861 c-69 -18 -125 -63 -161 -131 -16 -30 -19 -64 -22 -235 -3
-193 -4 -202 -30 -255 l-27 -55 -3 -427 -3 -428 291 0 291 0 -3 428 -3 427
-27 56 c-27 55 -28 60 -28 233 0 97 -5 197 -11 221 -27 109 -160 192 -264 166z"/>
<path d="M1005 2848 c-46 -10 -91 -49 -111 -95 -11 -26 -14 -160 -14 -728 l0
-695 165 0 166 0 -3 703 c-3 681 -4 703 -23 736 -39 66 -105 95 -180 79z"/>
<path d="M4123 2849 c-44 -9 -80 -34 -103 -72 -19 -31 -20 -56 -20 -739 l0
-708 160 0 160 0 0 695 c0 568 -3 702 -14 728 -30 70 -110 112 -183 96z"/>
<path d="M4565 2850 c-61 -13 -104 -51 -124 -109 -8 -24 -11 -234 -11 -722 l0
-689 165 0 165 0 0 689 c0 488 -3 698 -11 722 -26 78 -107 125 -184 109z"/>
<path d="M6051 2849 c-43 -9 -81 -37 -106 -80 -19 -33 -20 -55 -23 -736 l-3
-703 166 0 165 0 0 695 c0 568 -3 702 -14 728 -30 71 -110 112 -185 96z"/>
<path d="M6501 2849 c-48 -10 -83 -39 -108 -89 l-23 -44 0 -693 0 -693 165 0
166 0 -3 709 c-3 699 -3 710 -24 737 -44 60 -108 87 -173 73z"/>
<path d="M9051 2849 c-43 -9 -81 -37 -106 -80 -19 -33 -20 -55 -23 -736 l-3
-703 166 0 165 0 0 695 c0 568 -3 702 -14 728 -30 71 -110 112 -185 96z"/>
<path d="M9501 2849 c-39 -8 -76 -34 -105 -73 -21 -27 -21 -38 -24 -737 l-3
-709 166 0 165 0 0 693 0 693 -22 44 c-37 71 -103 105 -177 89z"/>
<path d="M1402 2829 c-18 -12 -42 -39 -52 -60 -19 -37 -20 -63 -20 -739 l0
-700 160 0 160 0 0 706 c0 695 0 707 -21 740 -45 73 -155 99 -227 53z"/>
<path d="M4948 2805 c-54 -31 -58 -51 -58 -325 l0 -251 118 3 117 3 3 230 c3
246 -2 287 -42 324 -31 30 -100 37 -138 16z"/>
<path d="M5263 2801 c-17 -11 -37 -29 -42 -40 -7 -12 -11 -114 -11 -275 l0
-256 115 0 115 0 0 260 0 260 -28 31 c-37 41 -102 50 -149 20z"/>
<path d="M5598 2805 c-54 -31 -58 -51 -58 -325 l0 -250 115 0 115 0 0 260 0
260 -28 31 c-34 38 -100 49 -144 24z"/>
<path d="M5210 2124 c-150 -40 -284 -180 -319 -335 -6 -24 -11 -137 -11 -251
l0 -208 455 0 455 0 0 203 c0 280 -25 365 -139 477 -117 114 -281 157 -441
114z"/>
<path d="M9596 1089 c-31 -25 -34 -55 -5 -64 20 -7 20 -7 2 -27 -17 -20 -17
-20 17 1 19 11 43 21 53 21 37 0 15 18 -28 23 -26 2 -49 8 -53 12 -11 11 30
36 50 29 12 -3 18 0 18 10 0 22 -22 20 -54 -5z"/>
<path d="M8561 944 c-20 -25 -22 -36 -17 -89 3 -33 11 -120 17 -192 l12 -133
51 -1 c108 -3 140 2 158 24 l18 22 89 -47 c88 -46 89 -46 99 -24 9 20 18 22
87 24 42 1 83 7 91 13 10 8 18 9 27 0 15 -11 25 -12 184 -11 l101 0 11 32 c6
17 11 61 11 97 l0 66 -25 -30 c-16 -20 -24 -40 -22 -60 2 -28 0 -30 -37 -33
l-38 -3 6 38 c4 21 10 47 13 58 5 18 3 18 -21 -4 -14 -13 -29 -40 -32 -59 -7
-34 -7 -34 -51 -29 -62 7 -67 15 -49 78 l16 54 -31 -31 c-17 -17 -34 -47 -38
-65 l-7 -34 -71 -3 c-71 -3 -72 -3 -98 32 -14 19 -29 50 -32 70 -5 31 -9 36
-33 36 -36 0 -103 -50 -135 -100 -25 -40 -26 -40 -88 -40 -96 0 -98 2 -114
171 -8 79 -18 157 -21 173 l-7 30 -24 -30z m391 -291 c20 -18 25 -63 6 -63 -6
0 -31 12 -55 26 -36 21 -42 28 -32 40 16 19 58 18 81 -3z"/>
<path d="M3046 944 c-41 -40 7 -109 59 -86 20 9 25 19 25 46 0 51 -50 75 -84
40z"/>
<path d="M3944 935 c-19 -29 -11 -60 18 -76 26 -14 64 2 73 31 9 30 -19 70
-50 70 -15 0 -31 -10 -41 -25z"/>
<path d="M1029 923 c-6 -15 -44 -117 -84 -226 l-72 -198 45 3 c45 3 47 4 58
43 l11 40 88 0 88 0 11 -40 c11 -39 13 -40 59 -43 l47 -3 -20 53 c-12 29 -49
130 -83 223 l-63 170 -37 3 c-33 3 -38 0 -48 -25z m76 -173 c14 -40 25 -77 25
-82 0 -4 -25 -8 -55 -8 -30 0 -55 3 -55 7 0 15 52 164 56 160 2 -2 15 -37 29
-77z"/>
<path d="M1373 928 l-33 -20 0 -204 0 -204 40 0 40 0 0 225 c0 124 -3 225 -7
224 -5 0 -23 -10 -40 -21z"/>
<path d="M1700 711 c0 -132 -3 -246 -6 -255 -7 -18 -41 -21 -64 -6 -11 7 -18
3 -27 -13 -17 -30 -16 -32 12 -45 43 -20 122 -15 145 8 19 19 20 33 20 285 l0
265 -40 0 -40 0 0 -239z"/>
<path d="M2308 928 l-38 -22 0 -203 0 -203 34 0 c22 0 36 6 40 16 5 13 9 13
32 -5 34 -26 97 -28 143 -3 89 48 106 212 30 283 -42 39 -107 48 -154 20 l-35
-20 0 79 c0 44 -3 80 -7 80 -5 0 -25 -10 -45 -22z m169 -180 c28 -30 37 -85
23 -136 -12 -46 -33 -62 -79 -62 -43 0 -61 31 -61 108 0 53 4 67 25 87 30 31
65 32 92 3z"/>
<path d="M3263 933 l-33 -17 0 -208 0 -208 40 0 40 0 0 225 c0 124 -3 225 -7
224 -5 0 -23 -8 -40 -16z"/>
<path d="M3590 725 l0 -225 40 0 39 0 3 98 3 97 88 3 87 3 0 29 0 29 -87 3
-88 3 0 55 0 55 103 3 102 3 0 34 0 35 -145 0 -145 0 0 -225z"/>
<path d="M4473 928 l-33 -20 0 -204 0 -204 40 0 40 0 0 114 c0 107 1 116 22
130 31 22 64 20 88 -4 18 -18 20 -33 20 -130 l0 -110 46 0 47 0 -5 128 c-5
138 -13 164 -58 187 -39 20 -68 19 -115 -5 -22 -11 -41 -20 -42 -20 -2 0 -3
36 -3 80 0 44 -3 80 -7 79 -5 0 -23 -10 -40 -21z"/>
<path d="M6218 923 c-36 -42 -37 -55 -17 -204 26 -200 26 -203 -15 -223 -43
-20 -138 -21 -176 -1 -46 24 -50 65 -16 160 8 20 7 20 -8 1 -24 -30 -56 -122
-56 -162 0 -49 44 -90 107 -100 89 -13 180 34 215 112 9 19 19 21 96 22 75 2
89 5 101 22 l14 21 23 -22 c21 -20 33 -22 126 -20 94 1 105 3 120 23 l16 22
20 -24 c20 -24 24 -25 133 -22 104 3 117 5 165 32 41 24 63 30 111 30 59 0 61
-1 67 -30 l6 -30 114 0 c81 0 117 4 123 13 4 6 8 64 8 129 0 107 2 118 23 140
12 13 22 27 22 30 0 3 -24 21 -54 41 l-54 36 -20 -33 c-17 -29 -18 -36 -6 -47
15 -16 57 -206 50 -226 -4 -9 -29 -13 -82 -13 l-77 0 6 34 c5 34 5 35 -36 41
-23 4 -81 22 -128 41 -127 50 -160 46 -208 -23 l-21 -31 29 11 c23 8 42 7 90
-8 34 -10 61 -21 61 -25 0 -39 -241 -58 -273 -22 -11 12 -17 37 -17 73 l-1 54
-24 -28 c-14 -15 -25 -38 -25 -50 -1 -64 -5 -67 -104 -67 -124 0 -141 11 -131
89 l7 56 -26 -24 c-15 -14 -26 -36 -26 -50 0 -68 -4 -71 -101 -71 -50 0 -91 4
-94 10 -4 6 -13 81 -21 167 -8 86 -16 158 -18 160 -1 2 -10 -5 -18 -14z"/>
<path d="M7699 897 l-25 -47 17 -142 c10 -79 18 -150 19 -158 0 -8 8 -2 18 15
14 25 17 52 14 150 -1 66 -6 144 -10 174 l-7 54 -26 -46z"/>
<path d="M9648 898 l-28 -46 15 -124 c22 -180 25 -196 36 -176 21 38 26 118
15 253 l-11 140 -27 -47z"/>
<path d="M8335 894 c-16 -30 -17 -39 -6 -56 14 -23 52 -208 45 -220 -3 -4 -83
-8 -178 -8 -170 0 -173 0 -196 25 -18 19 -22 31 -17 60 7 45 0 45 -19 0 -22
-54 -18 -112 11 -140 24 -25 25 -25 224 -25 149 0 202 3 208 13 4 6 7 62 6
123 -2 105 -1 113 23 145 23 31 24 35 8 44 -10 6 -34 24 -54 42 l-36 32 -19
-35z"/>
<path d="M8196 839 c-28 -22 -56 -68 -56 -94 0 -9 9 -15 24 -15 40 0 40 -18 2
-41 -44 -26 -45 -30 -3 -18 58 16 94 89 45 89 -45 0 -52 15 -21 41 25 21 50
59 39 59 -2 0 -15 -9 -30 -21z"/>
<path d="M2756 816 c-49 -18 -71 -40 -62 -61 4 -12 11 -15 24 -9 9 4 41 10 69
12 48 3 54 2 62 -20 12 -31 6 -38 -32 -38 -91 0 -157 -44 -157 -104 0 -93 75
-133 168 -89 26 12 37 14 40 5 2 -7 19 -12 38 -12 l34 0 0 108 c0 125 -12 176
-45 198 -34 22 -93 27 -139 10z m94 -198 c0 -65 -77 -96 -102 -42 -11 24 -9
29 15 50 16 14 41 24 58 24 26 0 29 -3 29 -32z"/>
<path d="M4173 816 c-38 -17 -53 -43 -53 -89 0 -42 42 -83 95 -93 44 -8 73
-39 58 -62 -11 -18 -77 -22 -120 -8 -16 6 -24 3 -32 -13 -18 -33 27 -56 111
-56 60 0 71 3 94 27 38 37 38 102 0 135 -15 12 -39 26 -54 29 -42 10 -72 33
-72 55 0 27 25 34 74 21 42 -11 66 -3 66 23 0 32 -117 54 -167 31z"/>
<path d="M1882 693 c3 -74 10 -139 17 -154 25 -51 108 -65 167 -28 29 17 34
18 34 5 0 -12 10 -16 35 -16 l35 0 0 160 0 160 -45 0 -45 0 0 -124 c0 -133 -1
-136 -55 -136 -47 0 -55 22 -55 146 l0 114 -46 0 -46 0 4 -127z"/>
<path d="M3040 660 l0 -160 40 0 40 0 0 160 0 160 -40 0 -40 0 0 -160z"/>
<path d="M3940 660 l0 -160 45 0 45 0 0 160 0 160 -45 0 -45 0 0 -160z"/>
<path d="M6357 416 c-15 -23 -15 -25 9 -41 24 -16 27 -15 45 1 19 17 21 17 51
-1 31 -18 31 -18 50 5 24 29 23 35 -8 49 -22 10 -31 9 -50 -4 -22 -14 -27 -14
-46 0 -29 20 -33 19 -51 -9z"/>
<path d="M6700 415 c-19 -21 -21 -27 -10 -40 26 -31 45 -34 79 -13 l32 21 -27
28 c-34 35 -44 36 -74 4z"/>
<path d="M7037 412 c-23 -25 -22 -29 12 -46 27 -14 30 -14 51 9 25 27 25 27
-7 44 -29 15 -37 14 -56 -7z"/>
</g>
</svg>
